<?xml version="1.0" encoding="us-ascii" standalone="no"?><svg xmlns="http://www.w3.org/2000/svg" xmlns:xlink="http://www.w3.org/1999/xlink" contentStyleType="text/css" height="1867px" preserveAspectRatio="none" style="width:853px;height:1867px;background:#FEFEFE;" version="1.1" viewBox="0 0 853 1867" width="853px" zoomAndPan="magnify"><defs/><g><rect fill="#FEFEFE" height="1867" style="stroke:none;stroke-width:1.0;" width="853" x="0" y="0"/><!--cluster H? th?ng giao d?ch ch?ng kho?n\n(Stock Trading System)--><g id="cluster_H&#7879; th&#7889;ng giao d&#7883;ch ch&#7913;ng kho&#225;n\n(Stock Trading System)"><rect fill="#FFFFE0" height="1127" rx="2.5" ry="2.5" style="stroke:#181818;stroke-width:1.0;" width="710.72" x="137" y="7"/><text fill="#000000" font-family="DejaVu Sans" font-size="14" font-weight="bold" lengthAdjust="spacing" textLength="228" x="378.36" y="23.5332">H&#7879; th&#7889;ng giao d&#7883;ch ch&#7913;ng kho&#225;n</text><text fill="#000000" font-family="DejaVu Sans" font-size="14" font-weight="bold" lengthAdjust="spacing" textLength="160" x="412.36" y="41.1426">(Stock Trading System)</text></g><!--cluster MCP--><g id="cluster_MCP"><rect fill="#ADD8E6" height="228" rx="2.5" ry="2.5" style="stroke:#181818;stroke-width:1.0;" width="360.72" x="455" y="684"/><rect fill="#ADD8E6" height="10" style="stroke:#181818;stroke-width:1.0;" width="15" x="795.72" y="689"/><rect fill="#ADD8E6" height="2" style="stroke:#181818;stroke-width:1.0;" width="4" x="793.72" y="691"/><rect fill="#ADD8E6" height="2" style="stroke:#181818;stroke-width:1.0;" width="4" x="793.72" y="695"/><text fill="#000000" font-family="DejaVu Sans" font-size="14" font-weight="bold" lengthAdjust="spacing" textLength="84" x="593.36" y="711.5332">MCP Server</text><text fill="#000000" font-family="DejaVu Sans" font-size="14" font-weight="bold" lengthAdjust="spacing" textLength="104" x="583.36" y="729.1426">(25 MCP Tools)</text></g><!--cluster D?ch v? b?n ngo?i--><g id="cluster_D&#7883;ch v&#7909; b&#234;n ngo&#224;i"><path d="M636.72,1158 L764.72,1158 A3.75,3.75 0 0 1 767.22,1160.5 L774.22,1181.6094 L778.72,1181.6094 A2.5,2.5 0 0 1 781.22,1184.1094 L781.22,1672.5 A2.5,2.5 0 0 1 778.72,1675 L636.72,1675 A2.5,2.5 0 0 1 634.22,1672.5 L634.22,1160.5 A2.5,2.5 0 0 1 636.72,1158 " fill="#E6E6FA" style="stroke:#000000;stroke-width:1.5;"/><line style="stroke:#000000;stroke-width:1.5;" x1="634.22" x2="774.22" y1="1181.6094" y2="1181.6094"/><text fill="#000000" font-family="DejaVu Sans" font-size="14" font-weight="bold" lengthAdjust="spacing" textLength="127" x="638.22" y="1174.5332">D&#7883;ch v&#7909; b&#234;n ngo&#224;i</text></g><g id="elem_UC1"><ellipse cx="255.1249" cy="88.9034" fill="#90EE90" rx="75.1249" ry="27.9034" style="stroke:#181818;stroke-width:0.5;"/><text fill="#000000" font-family="DejaVu Sans" font-size="14" lengthAdjust="spacing" textLength="90" x="210.1249" y="83.8272">UC1: X&#225;c th&#7921;c</text><text fill="#000000" font-family="DejaVu Sans" font-size="14" lengthAdjust="spacing" textLength="59" x="225.6249" y="101.4366">danh t&#237;nh</text></g><g id="elem_UC2"><ellipse cx="255.0036" cy="179.9034" fill="#90EE90" rx="73.0036" ry="27.9034" style="stroke:#181818;stroke-width:0.5;"/><text fill="#000000" font-family="DejaVu Sans" font-size="14" lengthAdjust="spacing" textLength="87" x="211.5036" y="174.8272">UC2: &#272;&#259;ng k&#253;</text><text fill="#000000" font-family="DejaVu Sans" font-size="14" lengthAdjust="spacing" textLength="59" x="225.5036" y="192.4366">c&#7843;nh b&#225;o</text></g><g id="elem_UC3"><ellipse cx="255.0599" cy="270.9034" fill="#90EE90" rx="88.5599" ry="27.9034" style="stroke:#181818;stroke-width:0.5;"/><text fill="#000000" font-family="DejaVu Sans" font-size="14" lengthAdjust="spacing" textLength="87" x="211.5599" y="265.8272">UC3: &#272;&#259;ng k&#253;</text><text fill="#000000" font-family="DejaVu Sans" font-size="14" lengthAdjust="spacing" textLength="109" x="200.5599" y="283.4366">theo d&#245;i c&#7893; phi&#7871;u</text></g><g id="elem_UC4"><ellipse cx="254.9975" cy="361.9034" fill="#90EE90" rx="52.4975" ry="27.9034" style="stroke:#181818;stroke-width:0.5;"/><text fill="#000000" font-family="DejaVu Sans" font-size="14" lengthAdjust="spacing" textLength="58" x="225.9975" y="356.8272">UC4: L&#7885;c</text><text fill="#000000" font-family="DejaVu Sans" font-size="14" lengthAdjust="spacing" textLength="54" x="227.9975" y="374.4366">c&#7893; phi&#7871;u</text></g><g id="elem_UC5"><ellipse cx="254.832" cy="452.9034" fill="#90EE90" rx="75.832" ry="27.9034" style="stroke:#181818;stroke-width:0.5;"/><text fill="#000000" font-family="DejaVu Sans" font-size="14" lengthAdjust="spacing" textLength="91" x="209.332" y="447.8272">UC5: Truy v&#7845;n</text><text fill="#000000" font-family="DejaVu Sans" font-size="14" lengthAdjust="spacing" textLength="91" x="209.332" y="465.4366">d&#7919; li&#7879;u c&#417; b&#7843;n</text></g><g id="elem_UC6"><ellipse cx="254.8381" cy="543.9034" fill="#90EE90" rx="96.3381" ry="27.9034" style="stroke:#181818;stroke-width:0.5;"/><text fill="#000000" font-family="DejaVu Sans" font-size="14" lengthAdjust="spacing" textLength="94" x="207.8381" y="538.8272">UC6: Ph&#226;n t&#237;ch</text><text fill="#000000" font-family="DejaVu Sans" font-size="14" lengthAdjust="spacing" textLength="120" x="194.8381" y="556.4366">k&#7929; thu&#7853;t &amp; t&#224;i ch&#237;nh</text></g><g id="elem_UC7"><ellipse cx="254.8941" cy="634.905" fill="#90EE90" rx="91.3941" ry="27.905" style="stroke:#181818;stroke-width:0.5;"/><text fill="#000000" font-family="DejaVu Sans" font-size="14" lengthAdjust="spacing" textLength="113" x="197.6794" y="630.0302">UC7: Xem bi&#7875;u &#273;&#7891;</text><text fill="#000000" font-family="DejaVu Sans" font-size="14" lengthAdjust="spacing" textLength="97" x="205.6794" y="647.6396">gi&#225; &amp; indicators</text></g><g id="elem_UC8"><ellipse cx="255.0538" cy="725.9034" fill="#90EE90" rx="68.0538" ry="27.9034" style="stroke:#181818;stroke-width:0.5;"/><text fill="#000000" font-family="DejaVu Sans" font-size="14" lengthAdjust="spacing" textLength="80" x="215.0538" y="720.8272">UC8: T&#432; v&#7845;n</text><text fill="#000000" font-family="DejaVu Sans" font-size="14" lengthAdjust="spacing" textLength="41" x="234.5538" y="738.4366">&#273;&#7847;u t&#432;</text></g><g id="elem_UC9"><ellipse cx="254.8381" cy="816.9034" fill="#90EE90" rx="96.3381" ry="27.9034" style="stroke:#181818;stroke-width:0.5;"/><text fill="#000000" font-family="DejaVu Sans" font-size="14" lengthAdjust="spacing" textLength="104" x="202.8381" y="811.8272">UC9: T&#236;m ki&#7871;m &amp;</text><text fill="#000000" font-family="DejaVu Sans" font-size="14" lengthAdjust="spacing" textLength="120" x="194.8381" y="829.4366">kh&#225;m ph&#225; c&#7893; phi&#7871;u</text></g><g id="elem_UC10"><ellipse cx="254.7817" cy="907.9034" fill="#90EE90" rx="80.7817" ry="27.9034" style="stroke:#181818;stroke-width:0.5;"/><text fill="#000000" font-family="DejaVu Sans" font-size="14" lengthAdjust="spacing" textLength="98" x="205.7817" y="902.8272">UC10: D&#7921; &#273;o&#225;n</text><text fill="#000000" font-family="DejaVu Sans" font-size="14" lengthAdjust="spacing" textLength="77" x="216.2817" y="920.4366">gi&#225; c&#7893; phi&#7871;u</text></g><g id="elem_UC11"><ellipse cx="255.1837" cy="998.9509" fill="#90EE90" rx="102.1837" ry="27.9509" style="stroke:#181818;stroke-width:0.5;"/><text fill="#000000" font-family="DejaVu Sans" font-size="14" lengthAdjust="spacing" textLength="128" x="188.1837" y="994.6628">UC11: Xem b&#7889;i c&#7843;nh</text><text fill="#000000" font-family="DejaVu Sans" font-size="14" lengthAdjust="spacing" textLength="62" x="221.1837" y="1012.2722">th&#7883; tr&#432;&#7901;ng</text></g><g id="elem_UC12"><ellipse cx="255.1604" cy="1089.9034" fill="#90EE90" rx="78.6604" ry="27.9034" style="stroke:#181818;stroke-width:0.5;"/><text fill="#000000" font-family="DejaVu Sans" font-size="14" lengthAdjust="spacing" textLength="95" x="207.6604" y="1084.8272">UC12: So s&#225;nh</text><text fill="#000000" font-family="DejaVu Sans" font-size="14" lengthAdjust="spacing" textLength="54" x="228.1604" y="1102.4366">c&#7893; phi&#7871;u</text></g><g id="elem_GMN29"><path d="M623.72,746.5 L623.72,887.3125 L791.72,887.3125 L791.72,756.5 L781.72,746.5 L623.72,746.5 " fill="#FEFFDD" style="stroke:#181818;stroke-width:0.5;"/><path d="M781.72,746.5 L781.72,756.5 L791.72,756.5 L781.72,746.5 " fill="#FEFFDD" style="stroke:#181818;stroke-width:1.0;"/><text fill="#000000" font-family="DejaVu Sans" font-size="13" font-weight="bold" lengthAdjust="spacing" textLength="104" x="629.72" y="764.9951">Tool Categories:</text><text fill="#000000" font-family="DejaVu Sans" font-size="13" lengthAdjust="spacing" textLength="131" x="629.72" y="781.3467">&#8226; Stock Data Tools (4)</text><text fill="#000000" font-family="DejaVu Sans" font-size="13" lengthAdjust="spacing" textLength="137" x="629.72" y="797.6982">&#8226; Alert Management (3)</text><text fill="#000000" font-family="DejaVu Sans" font-size="13" lengthAdjust="spacing" textLength="138" x="629.72" y="814.0498">&#8226; Subscription Tools (3)</text><text fill="#000000" font-family="DejaVu Sans" font-size="13" lengthAdjust="spacing" textLength="78" x="629.72" y="830.4014">&#8226; AI Tools (3)</text><text fill="#000000" font-family="DejaVu Sans" font-size="13" lengthAdjust="spacing" textLength="114" x="629.72" y="846.7529">&#8226; Financial Data (3)</text><text fill="#000000" font-family="DejaVu Sans" font-size="13" lengthAdjust="spacing" textLength="147" x="629.72" y="863.1045">&#8226; Investment Planning (5)</text><text fill="#000000" font-family="DejaVu Sans" font-size="13" lengthAdjust="spacing" textLength="125" x="629.72" y="879.4561">&#8226; Stock Discovery (4)</text></g><!--entity DB--><g id="elem_DB"><path d="M650.22,1204 C650.22,1194 707.72,1194 707.72,1194 C707.72,1194 765.22,1194 765.22,1204 L765.22,1248.2188 C765.22,1258.2188 707.72,1258.2188 707.72,1258.2188 C707.72,1258.2188 650.22,1258.2188 650.22,1248.2188 L650.22,1204 " fill="#E0FFFF" style="stroke:#181818;stroke-width:0.5;"/><path d="M650.22,1204 C650.22,1214 707.72,1214 707.72,1214 C707.72,1214 765.22,1214 765.22,1204 " fill="none" style="stroke:#181818;stroke-width:0.5;"/><text fill="#000000" font-family="DejaVu Sans" font-size="14" lengthAdjust="spacing" textLength="77" x="660.22" y="1232.5332">PostgreSQL</text><text fill="#000000" font-family="DejaVu Sans" font-size="14" lengthAdjust="spacing" textLength="95" x="660.22" y="1250.1426">+ TimescaleDB</text></g><!--entity TCBS--><g id="elem_TCBS"><path d="M668.8988,1302.0943 C671.6054,1295.6095 676.6001,1294.8378 681.5455,1299.5701 C683.2075,1292.0902 689.0074,1289.8845 694.6573,1295.6106 C697.2955,1288.9225 702.4733,1286.7475 707.9084,1292.6721 C713.174,1287.3098 719.3331,1288.7032 722.2012,1295.4922 C728.4178,1291.5999 733.4102,1292.6712 735.4571,1300.2928 C741.8387,1294.3665 746.1715,1296.1992 749.353,1303.6236 C754.9439,1306.0754 756.7778,1310.1206 752.2927,1315.1436 C758.9952,1317.1632 759.1019,1322.3289 754.4433,1326.4999 C759.7053,1332.1339 757.9322,1337.4892 751.1597,1340.249 C756.2407,1344.955 755.5726,1349.4604 749.0059,1352.0385 C745.0305,1358.1128 740.6848,1358.4755 736.529,1352.221 C733.1746,1359.3343 728.6899,1359.3949 723.0584,1354.8526 C718.5324,1360.1278 713.6803,1361.9478 709.5438,1354.4409 C704.8718,1360.632 698.7769,1360.896 695.4568,1353.0812 C692.3966,1359.5812 685.7726,1358.9894 682.0969,1353.7838 C677.7527,1358.9535 670.599,1359.1688 667.9867,1351.83 C662.3442,1348.0397 662.2079,1343.7575 668.4359,1340.4351 C660.5655,1337.6903 659.41,1331.338 666.2832,1326.3413 C662.6411,1321.5898 662.4306,1317.6665 668.9264,1315.3538 C663.3645,1311.2782 661.81,1306.1962 668.8988,1302.0943 " fill="#FFB6C1" style="stroke:#181818;stroke-width:0.5;"/><text fill="#000000" font-family="DejaVu Sans" font-size="14" lengthAdjust="spacing" textLength="62" x="674.72" y="1323.0332">TCBS API</text><text fill="#000000" font-family="DejaVu Sans" font-size="14" lengthAdjust="spacing" textLength="66" x="674.72" y="1340.6426">(tcbs.com)</text></g><!--entity AI1--><g id="elem_AI1"><path d="M671.1529,1401.785 C674.7072,1394.4102 679.4466,1395.3169 684.5035,1400.1407 C685.988,1393.4284 691.0034,1390.0751 697.0966,1395.2641 C698.4531,1388.6119 703.6219,1387.119 708.1063,1392.3713 C714.6294,1386.6069 719.8307,1388.8391 721.2195,1397.1534 C725.1407,1392.8765 730.7065,1394.2641 732.4952,1399.6435 C737.563,1393.3512 743.4708,1395.7533 746.0484,1402.277 C753.4744,1404.6016 755.094,1409.3846 749.1964,1415.0046 C755.8895,1417.802 756.3833,1421.8182 751.8816,1427.1007 C756.5966,1432.6895 754.1554,1437.6248 747.4085,1438.8498 C752.5078,1443.7731 751.2281,1449.737 744.7299,1452.361 C742.2353,1458.2918 737.0015,1458.1743 733.1953,1453.834 C731.0567,1460.0347 727.051,1461.7671 721.4194,1457.933 C718.9873,1464.3631 713.673,1465.7861 709.0076,1460.2493 C703.3791,1465.5058 698.8216,1463.9058 696.6224,1456.8106 C691.3395,1462.0132 686.9286,1460.7406 684.0185,1454.2525 C679.1834,1459.0451 674.359,1459.6011 671.4165,1452.2832 C662.9498,1451.0907 661.8427,1444.4594 667.1066,1438.8588 C660.7991,1438.1061 656.8167,1432.9321 661.2893,1426.9246 C657.0203,1420.5084 660.3487,1417.2555 666.6222,1415.9728 C661.83,1409.0052 662.0974,1404.3305 671.1529,1401.785 " fill="#FFA07A" style="stroke:#181818;stroke-width:0.5;"/><text fill="#000000" font-family="DejaVu Sans" font-size="14" lengthAdjust="spacing" textLength="60" x="677.72" y="1423.0332">Gemini AI</text><text fill="#000000" font-family="DejaVu Sans" font-size="14" lengthAdjust="spacing" textLength="56" x="677.72" y="1440.6426">(Google)</text></g><!--entity AI2--><g id="elem_AI2"><path d="M667.4549,1502.164 C668.9225,1494.3039 675.6814,1494.1499 680.4237,1498.7578 C682.6228,1490.8685 688.4074,1488.6099 694.3401,1495.1594 C698.1386,1488.2737 702.4644,1486.1165 708.479,1492.8605 C714.2429,1487.8159 720.5827,1489.6571 723.1245,1496.7487 C728.0629,1491.3918 734.8313,1491.99 736.5234,1500.0022 C742.7649,1493.3631 747.3756,1495.5623 751.4886,1502.371 C758.996,1504.5385 761.1199,1509.4457 755.1441,1515.397 C761.6288,1516.0776 764.6244,1520.188 760.3794,1526.1114 C765.4848,1532.9769 764.0663,1537.8081 755.8436,1540.4605 C759.94,1545.9977 758.0269,1551.5812 750.7429,1552.1545 C745.8238,1558.198 741.6262,1559.5666 736.7894,1552.0698 C732.4486,1559.2585 728.3536,1558.292 723.5795,1552.5111 C719.492,1558.573 712.4061,1559.5855 708.6377,1552.1576 C705.7218,1559.0658 698.773,1558.4946 694.9094,1553.2261 C690.7729,1560.2402 685.7894,1558.9807 681.8657,1553.0124 C677.5644,1559.7771 670.4236,1559.4954 667.6029,1551.5744 C661.8218,1548.8995 660.6206,1545.2449 665.2259,1540.3672 C659.8807,1537.2737 659.3633,1531.5598 664.5675,1527.9088 C658.6233,1523.1552 658.1207,1519.2503 665.2673,1515.2186 C658.8062,1510.6246 661.3684,1504.6553 667.4549,1502.164 " fill="#FFA07A" style="stroke:#181818;stroke-width:0.5;"/><text fill="#000000" font-family="DejaVu Sans" font-size="14" lengthAdjust="spacing" textLength="61" x="672.72" y="1523.0332">Claude AI</text><text fill="#000000" font-family="DejaVu Sans" font-size="14" lengthAdjust="spacing" textLength="70" x="672.72" y="1540.6426">(Anthropic)</text></g><!--entity AI3--><g id="elem_AI3"><path d="M672.2419,1601.8024 C674.2535,1595.8673 679.9029,1594.301 684.4563,1598.8376 C686.2002,1591.9048 690.7783,1591.0547 696.0339,1595.1513 C699.8067,1589.2114 703.623,1588.4893 708.799,1593.5184 C713.1185,1588.8529 718.1359,1588.4786 720.7837,1595.2675 C726.0956,1590.247 731.6863,1592.3923 732.5284,1599.5709 C738.3974,1595.0346 741.831,1596.8411 744.5823,1603.0638 C751.2202,1605.7566 751.8545,1611.2911 746.2592,1615.6179 C752.1498,1620.3334 752.3883,1624.3678 745.3156,1628.1036 C751.8867,1631.9142 749.6529,1637.6328 744.3795,1640.5527 C750.1488,1643.4974 750.0875,1648.4698 744.2642,1651.2901 C742.8453,1658.0313 736.8455,1659.7317 731.927,1655.0795 C730.3098,1661.8043 724.9718,1663.7028 719.783,1658.8143 C717.787,1665.0677 713.3471,1665.2739 709.3311,1660.7784 C704.1416,1665.4687 699.205,1663.9943 696.6022,1657.7635 C692.0391,1662.8655 686.4634,1661.0431 684.744,1654.793 C679.4432,1660.5125 674.1734,1659.3724 672.2205,1651.6693 C665.5996,1648.2512 666.457,1644.4756 671.0541,1639.9418 C665.6137,1636.7977 666.245,1630.9627 671.1103,1627.8665 C666.3092,1623.82 664.9995,1619.5597 671.5574,1615.9389 C666.0448,1611.6179 666.0524,1605.5569 672.2419,1601.8024 " fill="#FFA07A" style="stroke:#181818;stroke-width:0.5;"/><text fill="#000000" font-family="DejaVu Sans" font-size="14" lengthAdjust="spacing" textLength="50" x="679.22" y="1623.0332">GPT-4o</text><text fill="#000000" font-family="DejaVu Sans" font-size="14" lengthAdjust="spacing" textLength="57" x="679.22" y="1640.6426">(OpenAI)</text></g><!--entity User--><g id="elem_User"><ellipse cx="48" cy="564" fill="#ADD8E6" rx="8" ry="8" style="stroke:#181818;stroke-width:0.5;"/><path d="M48,572 L48,599 M35,580 L61,580 M48,599 L35,614 M48,599 L61,614 " fill="none" style="stroke:#181818;stroke-width:0.5;"/><text fill="#000000" font-family="DejaVu Sans" font-size="14" lengthAdjust="spacing" textLength="29" x="6" y="630.0332">User</text><text fill="#000000" font-family="DejaVu Sans" font-size="14" lengthAdjust="spacing" textLength="84" x="6" y="647.6426">(Ng&#432;&#7901;i d&#249;ng)</text></g><!--link User to UC1--><g id="link_User_UC1"><path d="M51.15,555.38 C56.88,449.22 75.84,197.49 129,134 C143.29,116.93 158.8452,108.1363 179.8152,101.5563 " fill="none" id="User-to-UC1" style="stroke:#181818;stroke-width:1.0;"/><polygon fill="#181818" points="185.54,99.76,175.7553,98.638,180.7693,101.2569,178.1504,106.271,185.54,99.76" style="stroke:#181818;stroke-width:1.0;"/></g><!--link User to UC2--><g id="link_User_UC2"><path d="M53.35,555.16 C62.47,464.85 86.36,273.92 129,225 C143.93,207.87 160.1352,199.0239 181.4952,192.4539 " fill="none" id="User-to-UC2" style="stroke:#181818;stroke-width:1.0;"/><polygon fill="#181818" points="187.23,190.69,177.4518,189.5127,182.451,192.16,179.8037,197.1592,187.23,190.69" style="stroke:#181818;stroke-width:1.0;"/></g><!--link User to UC3--><g id="link_User_UC3"><path d="M49.43,555.44 C52.55,492.71 67.22,382.51 129,316 C142.26,301.72 154.7507,294.009 173.0807,287.349 " fill="none" id="User-to-UC3" style="stroke:#181818;stroke-width:1.0;"/><polygon fill="#181818" points="178.72,285.3,168.8951,284.6139,174.0206,287.0075,171.627,292.133,178.72,285.3" style="stroke:#181818;stroke-width:1.0;"/></g><!--link User to UC4--><g id="link_User_UC4"><path d="M57.05,555.23 C66.83,511.2 87.48,446.81 129,407 C149.48,387.36 173.3074,377.6582 198.5974,371.3682 " fill="none" id="User-to-UC4" style="stroke:#181818;stroke-width:1.0;"/><polygon fill="#181818" points="204.42,369.92,194.7206,368.2105,199.5678,371.1268,196.6515,375.974,204.42,369.92" style="stroke:#181818;stroke-width:1.0;"/></g><!--link User to UC5--><g id="link_User_UC5"><path d="M76.63,555.38 C90.24,535.37 108.21,513.24 129,498 C147.23,484.64 164.123,476.7927 185.063,469.8727 " fill="none" id="User-to-UC5" style="stroke:#181818;stroke-width:1.0;"/><polygon fill="#181818" points="190.76,467.99,180.9594,467.016,186.0125,469.5589,183.4696,474.612,190.76,467.99" style="stroke:#181818;stroke-width:1.0;"/></g><!--link User to UC6--><g id="link_User_UC6"><path d="M90.48,591.06 C117.86,583.18 148.6038,574.3285 180.1738,565.2485 " fill="none" id="User-to-UC6" style="stroke:#181818;stroke-width:1.0;"/><polygon fill="#181818" points="185.94,563.59,176.185,562.2335,181.1348,564.972,178.3963,569.9218,185.94,563.59" style="stroke:#181818;stroke-width:1.0;"/></g><!--link User to UC7--><g id="link_User_UC7"><path d="M90.48,609.48 C114.23,613.18 138.9318,617.0344 167.2418,621.4544 " fill="none" id="User-to-UC7" style="stroke:#181818;stroke-width:1.0;"/><polygon fill="#181818" points="173.17,622.38,164.8948,617.0395,168.2298,621.6087,163.6607,624.9438,173.17,622.38" style="stroke:#181818;stroke-width:1.0;"/></g><!--link User to UC8--><g id="link_User_UC8"><path d="M90.23,648.93 C101.94,660.16 115.28,671.41 129,680 C149.97,693.13 169.5564,701.4272 191.8764,708.8472 " fill="none" id="User-to-UC8" style="stroke:#181818;stroke-width:1.0;"/><polygon fill="#181818" points="197.57,710.74,190.2914,704.1051,192.8253,709.1627,187.7677,711.6966,197.57,710.74" style="stroke:#181818;stroke-width:1.0;"/></g><!--link User to UC9--><g id="link_User_UC9"><path d="M60.96,650.65 C72.6,688.01 93.8,738.89 129,771 C143.01,783.78 155.2609,790.9598 173.0609,797.7198 " fill="none" id="User-to-UC9" style="stroke:#181818;stroke-width:1.0;"/><polygon fill="#181818" points="178.67,799.85,171.6765,792.9153,173.9957,798.0748,168.8362,800.3941,178.67,799.85" style="stroke:#181818;stroke-width:1.0;"/></g><!--link User to UC10--><g id="link_User_UC10"><path d="M51.31,650.64 C56.58,707.94 73.71,803.69 129,862 C143.64,877.44 158.2243,885.7741 178.1743,892.6141 " fill="none" id="User-to-UC10" style="stroke:#181818;stroke-width:1.0;"/><polygon fill="#181818" points="183.85,894.56,176.6338,887.8573,179.1203,892.9384,174.0392,895.4249,183.85,894.56" style="stroke:#181818;stroke-width:1.0;"/></g><!--link User to UC11--><g id="link_User_UC11"><path d="M54.25,650.59 C64.5,735.47 89.68,908.3 129,953 C140.61,966.2 150.789,973.3327 167.169,980.0527 " fill="none" id="User-to-UC11" style="stroke:#181818;stroke-width:1.0;"/><polygon fill="#181818" points="172.72,982.33,165.9117,975.2133,168.0942,980.4322,162.8753,982.6147,172.72,982.33" style="stroke:#181818;stroke-width:1.0;"/></g><!--link User to UC12--><g id="link_User_UC12"><path d="M51.78,650.8 C58.58,752.3 79.32,984.87 129,1044 C142.98,1060.64 157.8554,1069.3702 178.2854,1076.1502 " fill="none" id="User-to-UC12" style="stroke:#181818;stroke-width:1.0;"/><polygon fill="#181818" points="183.98,1078.04,176.698,1071.4088,179.2345,1076.4651,174.1782,1079.0016,183.98,1078.04" style="stroke:#181818;stroke-width:1.0;"/></g><!--link MCP to GMN29--><g id="link_MCP_GMN29"><path d="M463.76,817 C466.02,817 554.05,817 623.49,817 " fill="none" id="MCP-GMN29" style="stroke:#181818;stroke-width:1.0;stroke-dasharray:7.0,7.0;"/></g><!--link UC1 to MCP--><g id="link_UC1_MCP"><path d="M310.73,107.91 C326.51,114.77 343.18,123.47 357,134 C398.2,165.38 412.25,175.73 431,224 C442.85,254.51 450.66,400.69 455.5225,540.265 C456.7381,575.1588 457.7695,609.6397 458.6338,641.7973 C458.8499,649.8367 459.0555,657.7308 459.2509,665.45 C459.3486,669.3095 459.4438,673.1253 459.5365,676.8936 C459.5828,678.7778 459.4831,674.6518 459.5282,676.5117 " fill="none" id="UC1-to-MCP" style="stroke:#181818;stroke-width:1.0;stroke-dasharray:7.0,7.0;"/><polygon fill="#181818" points="459.6736,682.51,463.4543,673.4157,459.5524,677.5114,455.4567,673.6095,459.6736,682.51" style="stroke:#181818;stroke-width:1.0;"/><text fill="#000000" font-family="DejaVu Sans" font-size="13" lengthAdjust="spacing" textLength="42" x="388" y="155.4951">&#171;uses&#187;</text></g><!--link UC2 to MCP--><g id="link_UC2_MCP"><path d="M309.94,198.57 C325.95,205.48 342.95,214.3 357,225 C398.2,256.38 412.02,266.82 431,315 C451.325,366.59 459.2025,490.54 461.98,602.3588 C462.6744,630.3134 463.009,651.5101 463.1807,676.6282 " fill="none" id="UC2-to-MCP" style="stroke:#181818;stroke-width:1.0;stroke-dasharray:7.0,7.0;"/><polygon fill="#181818" points="463.2217,682.628,467.1601,673.6009,463.1875,677.6281,459.1603,673.6556,463.2217,682.628" style="stroke:#181818;stroke-width:1.0;"/><text fill="#000000" font-family="DejaVu Sans" font-size="13" lengthAdjust="spacing" textLength="42" x="388" y="246.4951">&#171;uses&#187;</text></g><!--link UC3 to MCP--><g id="link_UC3_MCP"><path d="M314.93,291.77 C329.43,298.32 344.4,306.4 357,316 C398.2,347.38 411.69,357.95 431,406 C447.945,448.165 455.795,549.645 459.4037,641.2113 C459.8548,652.657 460.2397,663.9479 460.5677,674.9487 C460.6497,677.6989 460.5622,674.4332 460.6372,677.145 " fill="none" id="UC3-to-MCP" style="stroke:#181818;stroke-width:1.0;stroke-dasharray:7.0,7.0;"/><polygon fill="#181818" points="460.8032,683.1427,464.5527,674.0355,460.6649,678.1447,456.5558,674.2569,460.8032,683.1427" style="stroke:#181818;stroke-width:1.0;"/><text fill="#000000" font-family="DejaVu Sans" font-size="13" lengthAdjust="spacing" textLength="42" x="388" y="337.4951">&#171;uses&#187;</text></g><!--link UC4 to MCP--><g id="link_UC4_MCP"><path d="M300.19,376.53 C318.81,383.91 340.05,394.09 357,407 C398.2,438.38 411.17,449.16 431,497 C444.57,529.745 452.395,608.755 456.835,680.0675 C456.9044,681.1818 456.6076,676.3053 456.6753,677.4156 " fill="none" id="UC4-to-MCP" style="stroke:#181818;stroke-width:1.0;stroke-dasharray:7.0,7.0;"/><polygon fill="#181818" points="457.0407,683.4044,460.4852,674.1776,456.7362,678.4137,452.5001,674.6647,457.0407,683.4044" style="stroke:#181818;stroke-width:1.0;"/><text fill="#000000" font-family="DejaVu Sans" font-size="13" lengthAdjust="spacing" textLength="42" x="388" y="428.4951">&#171;uses&#187;</text></g><!--link UC5 to MCP--><g id="link_UC5_MCP"><path d="M310.99,472.02 C326.69,478.86 343.26,487.53 357,498 C398.2,529.38 410.26,540.55 431,588 C441.125,611.165 448.88,667.0025 454.145,717.7388 C454.3095,719.3243 454.4716,720.9048 454.6313,722.4792 C454.7111,723.2664 454.7904,724.052 454.869,724.836 C454.9083,725.228 454.3521,719.6492 454.3911,720.0403 " fill="none" id="UC5-to-MCP" style="stroke:#181818;stroke-width:1.0;stroke-dasharray:7.0,7.0;"/><polygon fill="#181818" points="454.9864,726.0107,458.0737,716.6582,454.4903,721.0354,450.1132,717.452,454.9864,726.0107" style="stroke:#181818;stroke-width:1.0;"/><text fill="#000000" font-family="DejaVu Sans" font-size="13" lengthAdjust="spacing" textLength="42" x="388" y="519.4951">&#171;uses&#187;</text></g><!--link UC6 to MCP--><g id="link_UC6_MCP"><path d="M316.33,565.74 C330.34,572.15 344.73,579.93 357,589 C397.27,618.78 408.49,629.25 431,674 C438.195,688.305 443.7481,704.2294 448.0317,720.1098 C450.1735,728.0501 451.9979,735.9793 453.5515,743.6897 C453.9399,745.6173 454.3114,747.5312 454.6666,749.4282 C454.7554,749.9024 453.7582,744.4746 453.845,744.9466 " fill="none" id="UC6-to-MCP" style="stroke:#181818;stroke-width:1.0;stroke-dasharray:7.0,7.0;"/><polygon fill="#181818" points="454.9301,750.8477,457.2365,741.2727,454.0258,745.9301,449.3684,742.7195,454.9301,750.8477" style="stroke:#181818;stroke-width:1.0;"/><text fill="#000000" font-family="DejaVu Sans" font-size="13" lengthAdjust="spacing" textLength="42" x="388" y="610.4951">&#171;uses&#187;</text></g><!--link UC7 to MCP--><g id="link_UC7_MCP"><path d="M312.86,656.74 C327.7,663.37 343.34,671.25 357,680 C393.86,703.62 405.2,709.64 431,745 C440.965,758.655 448.635,775.975 453.895,790.205 C454.2238,791.0944 454.5431,791.9717 454.853,792.8353 C454.8917,792.9432 452.9103,787.4012 452.9487,787.5087 " fill="none" id="UC7-to-MCP" style="stroke:#181818;stroke-width:1.0;stroke-dasharray:7.0,7.0;"/><polygon fill="#181818" points="454.9687,793.1585,455.7052,783.3372,453.2854,788.4503,448.1722,786.0305,454.9687,793.1585" style="stroke:#181818;stroke-width:1.0;"/><text fill="#000000" font-family="DejaVu Sans" font-size="13" lengthAdjust="spacing" textLength="42" x="388" y="696.4951">&#171;uses&#187;</text></g><!--link UC8 to MCP--><g id="link_UC8_MCP"><path d="M312.13,741.54 C347.56,752.61 393.54,769.35 431,791 C438.595,795.385 446.19,801.6225 452.0025,806.8888 C452.7291,807.547 453.4278,808.1901 454.0952,808.8126 C454.262,808.9682 454.4269,809.1225 454.5898,809.2754 C454.6712,809.3519 454.7521,809.428 454.8325,809.5037 C454.8728,809.5416 450.549,805.4616 450.5889,805.4993 " fill="none" id="UC8-to-MCP" style="stroke:#181818;stroke-width:1.0;stroke-dasharray:7.0,7.0;"/><polygon fill="#181818" points="454.9528,809.6171,451.1522,800.5311,451.3162,806.1856,445.6618,806.3496,454.9528,809.6171" style="stroke:#181818;stroke-width:1.0;"/><text fill="#000000" font-family="DejaVu Sans" font-size="13" lengthAdjust="spacing" textLength="42" x="388" y="767.4951">&#171;uses&#187;</text></g><!--link UC9 to MCP--><g id="link_UC9_MCP"><path d="M351.63,817 C377.775,817 404.5725,817 425.2563,817 C435.5981,817 444.4116,817 450.8508,817 C451.6557,817 452.4235,817 453.1525,817 C453.5171,817 453.8719,817 454.2169,817 C454.3893,817 454.5593,817 454.7268,817 C454.8106,817 448.8937,817 448.9762,817 " fill="none" id="UC9-to-MCP" style="stroke:#181818;stroke-width:1.0;stroke-dasharray:7.0,7.0;"/><polygon fill="#181818" points="454.9762,817,445.9762,813,449.9762,817,445.9762,821,454.9762,817" style="stroke:#181818;stroke-width:1.0;"/><text fill="#000000" font-family="DejaVu Sans" font-size="13" lengthAdjust="spacing" textLength="42" x="388" y="813.4951">&#171;uses&#187;</text></g><!--link UC10 to MCP--><g id="link_UC10_MCP"><path d="M318.61,890.41 C353.04,879.37 395.78,863.35 431,843 C438.595,838.615 446.19,832.3775 452.0025,827.1113 C452.7291,826.453 453.4278,825.8099 454.0952,825.1874 C454.262,825.0318 454.4269,824.8775 454.5898,824.7246 C454.6712,824.6481 454.7521,824.572 454.8325,824.4963 C454.8728,824.4584 450.549,828.5384 450.5889,828.5007 " fill="none" id="UC10-to-MCP" style="stroke:#181818;stroke-width:1.0;stroke-dasharray:7.0,7.0;"/><polygon fill="#181818" points="454.9528,824.3829,445.6618,827.6504,451.3162,827.8144,451.1522,833.4689,454.9528,824.3829" style="stroke:#181818;stroke-width:1.0;"/><text fill="#000000" font-family="DejaVu Sans" font-size="13" lengthAdjust="spacing" textLength="42" x="388" y="839.4951">&#171;uses&#187;</text></g><!--link UC11 to MCP--><g id="link_UC11_MCP"><path d="M314.58,976.21 C353.11,958.32 401.67,929.75 431,890 C441.155,876.235 448.83,858.6775 454.045,844.2313 C454.3709,843.3284 452.7063,848.1012 453.013,847.2243 " fill="none" id="UC11-to-MCP" style="stroke:#181818;stroke-width:1.0;stroke-dasharray:7.0,7.0;"/><polygon fill="#181818" points="454.994,841.5607,448.2468,848.7354,453.3432,846.2803,455.7982,851.3767,454.994,841.5607" style="stroke:#181818;stroke-width:1.0;"/><text fill="#000000" font-family="DejaVu Sans" font-size="13" lengthAdjust="spacing" textLength="42" x="388" y="886.4951">&#171;uses&#187;</text></g><!--link UC12 to MCP--><g id="link_UC12_MCP"><path d="M310.76,1070.09 C326.45,1063.08 343.07,1054.33 357,1044 C396.97,1014.37 408.51,1004.38 431,960 C438.2375,945.7175 443.8119,929.8044 448.1034,913.9281 C450.2492,905.99 452.0743,898.0611 453.6262,890.3498 C454.0142,888.422 454.3851,886.5078 454.7397,884.6105 C454.784,884.3733 453.7357,890.0361 453.7795,889.7995 " fill="none" id="UC12-to-MCP" style="stroke:#181818;stroke-width:1.0;stroke-dasharray:7.0,7.0;"/><polygon fill="#181818" points="454.8719,883.8998,449.3002,892.0211,453.9616,888.8162,457.1665,893.4776,454.8719,883.8998" style="stroke:#181818;stroke-width:1.0;"/><text fill="#000000" font-family="DejaVu Sans" font-size="13" lengthAdjust="spacing" textLength="42" x="388" y="956.4951">&#171;uses&#187;</text></g><!--link MCP to DB--><g id="link_MCP_DB"><path d="M520.9278,913.2898 C531.677,931.382 543.3691,951.0613 555.4813,971.4475 C603.93,1052.9925 656.0352,1140.6918 684.4652,1188.5418 " fill="none" id="MCP-to-DB" style="stroke:#181818;stroke-width:1.0;"/><polygon fill="#181818" points="687.53,1193.7,686.3717,1183.9195,684.976,1189.4015,679.4941,1188.0058,687.53,1193.7" style="stroke:#181818;stroke-width:1.0;"/><text fill="#000000" font-family="DejaVu Sans" font-size="13" lengthAdjust="spacing" textLength="61" x="513.22" y="864.4951">query data</text></g><!--link MCP to TCBS--><g id="link_MCP_TCBS"><path d="M467.5555,913.1434 C467.6204,913.9122 467.6863,914.6836 467.7534,915.4576 C467.8875,917.0055 468.0259,918.5635 468.1688,920.1308 C468.7404,926.4004 469.3837,932.8205 470.1073,939.3508 C471.5546,952.4113 473.3236,965.9119 475.4847,979.5275 C479.8069,1006.7588 485.6975,1034.45 493.72,1060 C526.24,1163.57 530.28,1199.94 607.72,1276 C622.28,1290.3 636.2886,1298.8676 654.1086,1306.8876 " fill="none" id="MCP-to-TCBS" style="stroke:#181818;stroke-width:1.0;"/><polygon fill="#181818" points="659.58,1309.35,653.0145,1302.0087,655.0205,1307.298,649.7312,1309.3039,659.58,1309.35" style="stroke:#181818;stroke-width:1.0;"/><text fill="#000000" font-family="DejaVu Sans" font-size="13" lengthAdjust="spacing" textLength="52" x="517.72" y="1056.4951">API calls</text></g><!--link MCP to AI1--><g id="link_MCP_AI1"><path d="M465.7703,912.5555 C465.7891,913.2653 465.8079,913.9778 465.8269,914.6929 C465.8649,916.1231 465.9035,917.5638 465.9427,919.0145 C466.2562,930.6206 466.6074,942.8726 466.9992,955.5809 C467.7827,980.9973 468.7284,1008.2388 469.8588,1035.7875 C474.38,1145.9825 481.855,1261.095 493.72,1284 C528.47,1351.09 605.3961,1389.5461 656.9161,1409.2561 " fill="none" id="MCP-to-AI1" style="stroke:#181818;stroke-width:1.0;"/><polygon fill="#181818" points="662.52,1411.4,655.5434,1404.4482,657.8501,1409.6134,652.6849,1411.9201,662.52,1411.4" style="stroke:#181818;stroke-width:1.0;"/><text fill="#000000" font-family="DejaVu Sans" font-size="13" lengthAdjust="spacing" textLength="95" x="496.22" y="1280.4951">Gemini requests</text></g><!--link MCP to AI2--><g id="link_MCP_AI2"><path d="M463.878,913.9629 C463.8985,917.2742 463.9209,920.6473 463.9453,924.0786 C463.994,930.9411 464.0506,938.0362 464.1163,945.3341 C464.2476,959.9297 464.4151,975.3361 464.6279,991.3142 C465.0535,1023.2702 465.6603,1057.5128 466.5213,1092.1287 C469.965,1230.5925 477.475,1375.03 493.72,1403 C528.89,1463.56 600.7001,1495.198 651.8701,1511.408 " fill="none" id="MCP-to-AI2" style="stroke:#181818;stroke-width:1.0;"/><polygon fill="#181818" points="657.59,1513.22,650.2182,1506.6888,652.8235,1511.71,647.8022,1514.3153,657.59,1513.22" style="stroke:#181818;stroke-width:1.0;"/><text fill="#000000" font-family="DejaVu Sans" font-size="13" lengthAdjust="spacing" textLength="94" x="496.72" y="1399.4951">Claude requests</text></g><!--link MCP to AI3--><g id="link_MCP_AI3"><path d="M465.402,913.9637 C465.4747,917.747 465.5499,921.6151 465.6273,925.563 C466.8672,988.7291 468.7169,1072.3344 471.1938,1156.6413 C476.1475,1325.255 483.61,1496.675 493.72,1513 C531.3,1573.68 607.4958,1602.1398 658.0858,1615.3898 " fill="none" id="MCP-to-AI3" style="stroke:#181818;stroke-width:1.0;"/><polygon fill="#181818" points="663.89,1616.91,656.1971,1610.7602,659.0531,1615.6432,654.1702,1618.4992,663.89,1616.91" style="stroke:#181818;stroke-width:1.0;"/><text fill="#000000" font-family="DejaVu Sans" font-size="13" lengthAdjust="spacing" textLength="98" x="494.72" y="1509.4951">GPT-4o requests</text></g><rect fill="none" height="154.875" id="_legend" rx="7.5" ry="7.5" style="stroke:#000000;stroke-width:1.0;" width="346" x="481.72" y="1693"/><text fill="#000000" font-family="DejaVu Sans" font-size="14" font-weight="bold" lengthAdjust="spacing" textLength="50" x="490.72" y="1714.5332">Symbol</text><text fill="#000000" font-family="DejaVu Sans" font-size="14" font-weight="bold" lengthAdjust="spacing" textLength="53" x="661.72" y="1714.5332">&#221; ngh&#297;a</text><text fill="#000000" font-family="DejaVu Sans" font-size="14" lengthAdjust="spacing" textLength="85" x="490.72" y="1732.1426">&lt;actor&gt; Actor</text><text fill="#000000" font-family="DejaVu Sans" font-size="14" lengthAdjust="spacing" textLength="134" x="661.72" y="1732.1426">Ng&#432;&#7901;i d&#249;ng h&#7879; th&#7889;ng</text><text fill="#000000" font-family="DejaVu Sans" font-size="14" lengthAdjust="spacing" textLength="134" x="490.72" y="1749.752">&lt;usecase&gt; Use Case</text><text fill="#000000" font-family="DejaVu Sans" font-size="14" lengthAdjust="spacing" textLength="157" x="661.72" y="1749.752">Ch&#7913;c n&#259;ng c&#7911;a h&#7879; th&#7889;ng</text><text fill="#000000" font-family="DejaVu Sans" font-size="14" lengthAdjust="spacing" textLength="163" x="490.72" y="1767.3613">&lt;component&gt; Component</text><text fill="#000000" font-family="DejaVu Sans" font-size="14" lengthAdjust="spacing" textLength="140" x="661.72" y="1767.3613">MCP Server (25 tools)</text><text fill="#000000" font-family="DejaVu Sans" font-size="14" lengthAdjust="spacing" textLength="140" x="490.72" y="1784.9707">&lt;database&gt; Database</text><text fill="#000000" font-family="DejaVu Sans" font-size="14" lengthAdjust="spacing" textLength="86" x="661.72" y="1784.9707">C&#417; s&#7903; d&#7919; li&#7879;u</text><text fill="#000000" font-family="DejaVu Sans" font-size="14" lengthAdjust="spacing" textLength="91" x="490.72" y="1802.5801">&lt;cloud&gt; Cloud</text><text fill="#000000" font-family="DejaVu Sans" font-size="14" lengthAdjust="spacing" textLength="108" x="661.72" y="1802.5801">D&#7883;ch v&#7909; &#273;&#225;m m&#226;y</text><text fill="#000000" font-family="DejaVu Sans" font-size="14" lengthAdjust="spacing" textLength="13" x="490.72" y="1820.1895">&#8594;</text><text fill="#000000" font-family="DejaVu Sans" font-size="14" lengthAdjust="spacing" textLength="120" x="661.72" y="1820.1895">Th&#7921;c hi&#7879;n / K&#7871;t n&#7889;i</text><text fill="#000000" font-family="DejaVu Sans" font-size="14" lengthAdjust="spacing" textLength="16" x="490.72" y="1837.7988">..&gt;</text><text fill="#000000" font-family="DejaVu Sans" font-size="14" lengthAdjust="spacing" textLength="146" x="661.72" y="1837.7988">S&#7917; d&#7909;ng (dependency)</text><line style="stroke:#000000;stroke-width:1.0;" x1="486.72" x2="822.72" y1="1700" y2="1700"/><line style="stroke:#000000;stroke-width:1.0;" x1="486.72" x2="822.72" y1="1717.6094" y2="1717.6094"/><line style="stroke:#000000;stroke-width:1.0;" x1="486.72" x2="822.72" y1="1735.2188" y2="1735.2188"/><line style="stroke:#000000;stroke-width:1.0;" x1="486.72" x2="822.72" y1="1752.8281" y2="1752.8281"/><line style="stroke:#000000;stroke-width:1.0;" x1="486.72" x2="822.72" y1="1770.4375" y2="1770.4375"/><line style="stroke:#000000;stroke-width:1.0;" x1="486.72" x2="822.72" y1="1788.0469" y2="1788.0469"/><line style="stroke:#000000;stroke-width:1.0;" x1="486.72" x2="822.72" y1="1805.6563" y2="1805.6563"/><line style="stroke:#000000;stroke-width:1.0;" x1="486.72" x2="822.72" y1="1823.2656" y2="1823.2656"/><line style="stroke:#000000;stroke-width:1.0;" x1="486.72" x2="822.72" y1="1840.875" y2="1840.875"/><line style="stroke:#000000;stroke-width:1.0;" x1="486.72" x2="486.72" y1="1700" y2="1840.875"/><line style="stroke:#000000;stroke-width:1.0;" x1="657.72" x2="657.72" y1="1700" y2="1840.875"/><line style="stroke:#000000;stroke-width:1.0;" x1="822.72" x2="822.72" y1="1700" y2="1840.875"/><!--SRC=[VLPTRnj557tthxYaKfi49THV-R22fSIEGqGeHdOHI7aPpqvs1-_Ek3kpAH51Gge43mY9WdYi84LLLKH5UE2XiH0F6-L_R7y9TsRNoMuIEv5ipznxximzS- -PUMSK4ZSWG3qIAgRXOR-pj5PIGov692G130WTkg6CXDEIlWpXJcVR_ESy2DKotBhkjbtjL3hjd5ka62MAtN3iT3hhhLhEaSfW90KJ-cRCSgTUM7g47iIz6NDxhLFVNiyvAeyuyZ4NBXmGNx6SnM479F9rHmhzW0GCvjhi2_9f13qYr5ofvBC33Lf2o5rFWyD3HZMNebIoMSFSGyN2VJ7_mBquJSRFE3Zn6-4kp05HO4nmPyy0j_o8bKe6IuJhuo8V9EFlG7l9-2bkoUL4WfEClwSU7aCoVeLpGq_69m8ZzxIaG-Y7n36xxnqfpGACdyRzdFc-V0nVbKe0z-0ZmeLP5Lh8iyAfZ7BSPQlSWC_Y4shN_9lk2uS83tJyMdZfNblbBEHEo9WeOYiDEF_n_8dPLVpllg39sUy87iGdCiDMfcEhHQps6AOQ_yE19kDVOEJnvEo_A0jJdHwcre2zPFm3DQlVmDMcu-eDf2uwWiFax0MoYIJ_1Jv7yYEW5oSmCAbaKUhJewmqeEl5puKXZ7hxOfYCto2JKNBsMiDTdFqDy_5oPAvCZxMA1y6mhN0JJo8uVvgCVzuNBezFC10N3gS4wqfbSLQdnrd3p2vE9ubXdBEN4UYBqmovDXsvZiZupm26XiC0xc8-Ndo2pOIVjntB-lHGvViDQ6D1OHvfkTf4RebHlZyZI3cZ1Bl1r8MfBbCfs12WGzjNmft4cL6cPQpJdWI56_5khPDoiKvjpzWcfLA8jAzDrzYffQMcGHI7bUAmMXpMYiDwSRXI7AuMXsl5uVgrRTo_Dhwsht8b4u1M5teiFBGfPIAAXilVC7VbWT9IgLj4NqfVfP9bXbUAXRe2-2UaPfd-oGFZOcS15XSD4iL6CrU6dAd6uc9cUllDSqY5gqqqILU0-Tf2phpfir2ZP0dKxy3iRRwQD_UYWQ8X7vb3cU0B3fkxjqvtk222SkAdAnUDk-AGAMrNw_f42AEey_M5cvlcYahawEXopqmubWSSV7rPEAdEcXBCM34gkeptZ5XkMYeRiB61LjLiMcDbbh4worYRPQpFCgxCCgxECgxDCgxFCcAppxBEvAWybIJa_HviVwbPAF1qJH5pYhTSzWJ0UpkzG0-JyGkyc_uG85o9mcokIdA8vuTDOUhPmR8OMCNeIgNTaFK-sTiNxqAV1qnHuhFsbcs5zbRM2QqZOeI6-Z9oOAxVskh1PdSNsqVJWLh6tafRnnfIH9UBuHLYXmLSSAnNXEn8YTT_2jZSdMXPZ_Y1pAtHyadai1InYK8OoX6d4r1b2cYdsr-gIKHyF69YStVYNYswMn8DiPdaAVEsOHDIrOHKux5aZW7b1ObemAF8T8FXhc2pIJSC7u3K-KMWIR01MVeXmn1AN_Uee4UMxXIFgebXSxlom1psc8jdYiypyvMg4t9n_3w-a881gXB-YfzX2NZdhmWS6nDis2SRnhGljsCeljd0op_9CaHskpGlknqdM-Q5Ha7OHmtUCY_9hT1BqMr2wr9_Z_CIRVHNM-sTO2QrsRJYDSZMmtUAIiQ_GlxnCbd4d3qkO4lW6F8jSFxKtEb1_FmeStxxxK_usRVlF_1C607lmOTuFseGzkfD_PQnzOwXbunVcnLV68bqsCWqaA17PgluCwMzz3y0]--></g></svg>