<?xml version="1.0" encoding="us-ascii" standalone="no"?><svg xmlns="http://www.w3.org/2000/svg" xmlns:xlink="http://www.w3.org/1999/xlink" contentStyleType="text/css" height="1080px" preserveAspectRatio="none" style="width:573px;height:1080px;background:#FFFFFF;" version="1.1" viewBox="0 0 573 1080" width="573px" zoomAndPan="magnify"><defs/><g><!--entity User--><g id="elem_User"><ellipse cx="20.5" cy="497.84" fill="#F1F1F1" rx="8" ry="8" style="stroke:#181818;stroke-width:0.5;"/><path d="M20.5,505.84 L20.5,532.84 M7.5,513.84 L33.5,513.84 M20.5,532.84 L7.5,547.84 M20.5,532.84 L33.5,547.84 " fill="none" style="stroke:#181818;stroke-width:0.5;"/><text fill="#000000" font-family="DejaVu Sans" font-size="14" lengthAdjust="spacing" textLength="29" x="6" y="563.8732">User</text></g><g id="elem_UC1"><ellipse cx="492.1249" cy="534.2434" fill="#F1F1F1" rx="75.1249" ry="27.9034" style="stroke:#181818;stroke-width:0.5;"/><text fill="#000000" font-family="DejaVu Sans" font-size="14" lengthAdjust="spacing" textLength="90" x="447.1249" y="529.1672">UC1: X&#225;c th&#7921;c</text><text fill="#000000" font-family="DejaVu Sans" font-size="14" lengthAdjust="spacing" textLength="59" x="462.6249" y="546.7766">danh t&#237;nh</text></g><g id="elem_UC2"><ellipse cx="198.0036" cy="136.2434" fill="#F1F1F1" rx="73.0036" ry="27.9034" style="stroke:#181818;stroke-width:0.5;"/><text fill="#000000" font-family="DejaVu Sans" font-size="14" lengthAdjust="spacing" textLength="87" x="154.5036" y="131.1672">UC2: &#272;&#259;ng k&#253;</text><text fill="#000000" font-family="DejaVu Sans" font-size="14" lengthAdjust="spacing" textLength="59" x="168.5036" y="148.7766">c&#7843;nh b&#225;o</text></g><g id="elem_UC3"><ellipse cx="198.0599" cy="227.2434" fill="#F1F1F1" rx="88.5599" ry="27.9034" style="stroke:#181818;stroke-width:0.5;"/><text fill="#000000" font-family="DejaVu Sans" font-size="14" lengthAdjust="spacing" textLength="87" x="154.5599" y="222.1672">UC3: &#272;&#259;ng k&#253;</text><text fill="#000000" font-family="DejaVu Sans" font-size="14" lengthAdjust="spacing" textLength="109" x="143.5599" y="239.7766">theo d&#245;i c&#7893; phi&#7871;u</text></g><g id="elem_UC4"><ellipse cx="197.9975" cy="318.2434" fill="#F1F1F1" rx="52.4975" ry="27.9034" style="stroke:#181818;stroke-width:0.5;"/><text fill="#000000" font-family="DejaVu Sans" font-size="14" lengthAdjust="spacing" textLength="58" x="168.9975" y="313.1672">UC4: L&#7885;c</text><text fill="#000000" font-family="DejaVu Sans" font-size="14" lengthAdjust="spacing" textLength="54" x="170.9975" y="330.7766">c&#7893; phi&#7871;u</text></g><g id="elem_UC5"><ellipse cx="197.832" cy="409.2434" fill="#F1F1F1" rx="75.832" ry="27.9034" style="stroke:#181818;stroke-width:0.5;"/><text fill="#000000" font-family="DejaVu Sans" font-size="14" lengthAdjust="spacing" textLength="91" x="152.332" y="404.1672">UC5: Truy v&#7845;n</text><text fill="#000000" font-family="DejaVu Sans" font-size="14" lengthAdjust="spacing" textLength="91" x="152.332" y="421.7766">d&#7919; li&#7879;u c&#417; b&#7843;n</text></g><g id="elem_UC6"><ellipse cx="197.8381" cy="500.2434" fill="#F1F1F1" rx="96.3381" ry="27.9034" style="stroke:#181818;stroke-width:0.5;"/><text fill="#000000" font-family="DejaVu Sans" font-size="14" lengthAdjust="spacing" textLength="94" x="150.8381" y="495.1672">UC6: Ph&#226;n t&#237;ch</text><text fill="#000000" font-family="DejaVu Sans" font-size="14" lengthAdjust="spacing" textLength="120" x="137.8381" y="512.7766">k&#7929; thu&#7853;t &amp; t&#224;i ch&#237;nh</text></g><g id="elem_UC7"><ellipse cx="197.8941" cy="591.245" fill="#F1F1F1" rx="91.3941" ry="27.905" style="stroke:#181818;stroke-width:0.5;"/><text fill="#000000" font-family="DejaVu Sans" font-size="14" lengthAdjust="spacing" textLength="113" x="140.6794" y="586.3702">UC7: Xem bi&#7875;u &#273;&#7891;</text><text fill="#000000" font-family="DejaVu Sans" font-size="14" lengthAdjust="spacing" textLength="97" x="148.6794" y="603.9796">gi&#225; &amp; indicators</text></g><g id="elem_UC8"><ellipse cx="198.0538" cy="682.2434" fill="#F1F1F1" rx="68.0538" ry="27.9034" style="stroke:#181818;stroke-width:0.5;"/><text fill="#000000" font-family="DejaVu Sans" font-size="14" lengthAdjust="spacing" textLength="80" x="158.0538" y="677.1672">UC8: T&#432; v&#7845;n</text><text fill="#000000" font-family="DejaVu Sans" font-size="14" lengthAdjust="spacing" textLength="41" x="177.5538" y="694.7766">&#273;&#7847;u t&#432;</text></g><g id="elem_UC9"><ellipse cx="197.8381" cy="773.2434" fill="#F1F1F1" rx="96.3381" ry="27.9034" style="stroke:#181818;stroke-width:0.5;"/><text fill="#000000" font-family="DejaVu Sans" font-size="14" lengthAdjust="spacing" textLength="104" x="145.8381" y="768.1672">UC9: T&#236;m ki&#7871;m &amp;</text><text fill="#000000" font-family="DejaVu Sans" font-size="14" lengthAdjust="spacing" textLength="120" x="137.8381" y="785.7766">kh&#225;m ph&#225; c&#7893; phi&#7871;u</text></g><g id="elem_UC10"><ellipse cx="197.7817" cy="864.2434" fill="#F1F1F1" rx="80.7817" ry="27.9034" style="stroke:#181818;stroke-width:0.5;"/><text fill="#000000" font-family="DejaVu Sans" font-size="14" lengthAdjust="spacing" textLength="98" x="148.7817" y="859.1672">UC10: D&#7921; &#273;o&#225;n</text><text fill="#000000" font-family="DejaVu Sans" font-size="14" lengthAdjust="spacing" textLength="77" x="159.2817" y="876.7766">gi&#225; c&#7893; phi&#7871;u</text></g><g id="elem_UC11"><ellipse cx="198.1837" cy="955.2909" fill="#F1F1F1" rx="102.1837" ry="27.9509" style="stroke:#181818;stroke-width:0.5;"/><text fill="#000000" font-family="DejaVu Sans" font-size="14" lengthAdjust="spacing" textLength="128" x="131.1837" y="951.0028">UC11: Xem b&#7889;i c&#7843;nh</text><text fill="#000000" font-family="DejaVu Sans" font-size="14" lengthAdjust="spacing" textLength="62" x="164.1837" y="968.6122">th&#7883; tr&#432;&#7901;ng</text></g><g id="elem_UC12"><ellipse cx="198.1604" cy="1046.2434" fill="#F1F1F1" rx="78.6604" ry="27.9034" style="stroke:#181818;stroke-width:0.5;"/><text fill="#000000" font-family="DejaVu Sans" font-size="14" lengthAdjust="spacing" textLength="95" x="150.6604" y="1041.1672">UC12: So s&#225;nh</text><text fill="#000000" font-family="DejaVu Sans" font-size="14" lengthAdjust="spacing" textLength="54" x="171.1604" y="1058.7766">c&#7893; phi&#7871;u</text></g><!--link User to UC1--><g id="link_User_UC1"><path d="M21.82,489.34 C23.56,391.45 34.08,139.65 96,90.34 C201.9,6 318.9,63.34 387,180.34 C451.28,290.79 477.6812,438.1403 486.5812,500.4203 " fill="none" id="User-to-UC1" style="stroke:#181818;stroke-width:1.0;"/><polygon fill="#181818" points="487.43,506.36,490.1166,496.8846,486.7227,501.4103,482.197,498.0164,487.43,506.36" style="stroke:#181818;stroke-width:1.0;"/></g><!--link User to UC2--><g id="link_User_UC2"><path d="M25.21,489.18 C33.57,408.48 56.35,227.39 96,181.34 C107.08,168.47 117.074,161.4941 132.594,154.7741 " fill="none" id="User-to-UC2" style="stroke:#181818;stroke-width:1.0;"/><polygon fill="#181818" points="138.1,152.39,128.2516,152.2954,133.5116,154.3767,131.4303,159.6368,138.1,152.39" style="stroke:#181818;stroke-width:1.0;"/></g><!--link User to UC3--><g id="link_User_UC3"><path d="M22.91,489.28 C26.89,434.5 41.68,334.6 96,272.34 C105.72,261.2 113.3207,255.286 126.7607,248.836 " fill="none" id="User-to-UC3" style="stroke:#181818;stroke-width:1.0;"/><polygon fill="#181818" points="132.17,246.24,122.3253,246.5278,127.6622,248.4033,125.7867,253.7402,132.17,246.24" style="stroke:#181818;stroke-width:1.0;"/></g><!--link User to UC4--><g id="link_User_UC4"><path d="M30.61,489.01 C40.93,452.32 61.02,398.15 96,363.34 C111.04,348.38 126.2865,340.042 145.1565,333.022 " fill="none" id="User-to-UC4" style="stroke:#181818;stroke-width:1.0;"/><polygon fill="#181818" points="150.78,330.93,140.9501,330.3191,146.0938,332.6734,143.7395,337.817,150.78,330.93" style="stroke:#181818;stroke-width:1.0;"/></g><!--link User to UC5--><g id="link_User_UC5"><path d="M35.18,511.57 C49.14,495.3 72.09,470.72 96,454.34 C110.49,444.41 122.0279,438.2231 137.9379,431.3031 " fill="none" id="User-to-UC5" style="stroke:#181818;stroke-width:1.0;"/><polygon fill="#181818" points="143.44,428.91,133.5915,428.8316,138.8549,430.9043,136.7823,436.1677,143.44,428.91" style="stroke:#181818;stroke-width:1.0;"/></g><!--link User to UC6--><g id="link_User_UC6"><path d="M35.27,526.14 C52.4,523.41 77.145,519.4658 107.215,514.6658 " fill="none" id="User-to-UC6" style="stroke:#181818;stroke-width:1.0;"/><polygon fill="#181818" points="113.14,513.72,103.622,511.1887,108.2025,514.5082,104.883,519.0887,113.14,513.72" style="stroke:#181818;stroke-width:1.0;"/></g><!--link User to UC7--><g id="link_User_UC7"><path d="M35.27,533.28 C57.17,541.14 95.5531,554.9221 132.1431,568.0621 " fill="none" id="User-to-UC7" style="stroke:#181818;stroke-width:1.0;"/><polygon fill="#181818" points="137.79,570.09,130.6716,563.2836,133.0842,568.4001,127.9677,570.8128,137.79,570.09" style="stroke:#181818;stroke-width:1.0;"/></g><!--link User to UC8--><g id="link_User_UC8"><path d="M35.25,556.32 C48.17,580.2 69.46,614.11 96,636.34 C110.18,648.22 122.418,655.2797 139.068,662.4397 " fill="none" id="User-to-UC8" style="stroke:#181818;stroke-width:1.0;"/><polygon fill="#181818" points="144.58,664.81,137.8923,657.5799,139.9867,662.8347,134.7319,664.9292,144.58,664.81" style="stroke:#181818;stroke-width:1.0;"/></g><!--link User to UC9--><g id="link_User_UC9"><path d="M27.01,567.44 C35.07,611.34 53.97,682.3 96,727.34 C105.92,737.98 113.3996,743.6845 126.5896,750.1945 " fill="none" id="User-to-UC9" style="stroke:#181818;stroke-width:1.0;"/><polygon fill="#181818" points="131.97,752.85,125.6698,745.2798,127.4864,750.6371,122.1291,752.4536,131.97,752.85" style="stroke:#181818;stroke-width:1.0;"/></g><!--link User to UC10--><g id="link_User_UC10"><path d="M21.3,567.35 C23.02,627.93 34.74,745.23 96,818.34 C106.27,830.6 115.0593,837.2105 129.5993,843.9705 " fill="none" id="User-to-UC10" style="stroke:#181818;stroke-width:1.0;"/><polygon fill="#181818" points="135.04,846.5,128.5653,839.0786,130.5061,844.3921,125.1926,846.3329,135.04,846.5" style="stroke:#181818;stroke-width:1.0;"/></g><!--link User to UC11--><g id="link_User_UC11"><path d="M24.49,567.59 C31.79,654.03 53.16,857.31 96,909.34 C104.76,919.98 111.1718,925.5012 123.5518,931.9112 " fill="none" id="User-to-UC11" style="stroke:#181818;stroke-width:1.0;"/><polygon fill="#181818" points="128.88,934.67,122.7269,926.9798,124.4399,932.371,119.0486,934.084,128.88,934.67" style="stroke:#181818;stroke-width:1.0;"/></g><!--link User to UC12--><g id="link_User_UC12"><path d="M22.83,567.67 C26.97,668.6 42.78,933.49 96,1000.34 C106.14,1013.08 115.1373,1019.9164 129.9473,1026.7164 " fill="none" id="User-to-UC12" style="stroke:#181818;stroke-width:1.0;"/><polygon fill="#181818" points="135.4,1029.22,128.89,1021.8295,130.8561,1027.1337,125.5519,1029.0997,135.4,1029.22" style="stroke:#181818;stroke-width:1.0;"/></g><!--link UC2 to UC1--><g id="link_UC2_UC1"><path d="M252.01,155.24 C268.15,162.21 285.46,170.98 300,181.34 C346.1,214.18 356.63,226.58 387,274.34 C436.3,351.88 467.858,450.8662 481.858,500.3962 " fill="none" id="UC2-to-UC1" style="stroke:#181818;stroke-width:1.0;stroke-dasharray:7.0,7.0;"/><polygon fill="#181818" points="483.49,506.17,484.8912,496.4213,482.13,501.3585,477.1928,498.5973,483.49,506.17" style="stroke:#181818;stroke-width:1.0;"/><text fill="#000000" font-family="DejaVu Sans" font-size="13" lengthAdjust="spacing" textLength="55" x="331" y="202.8351">&#171;include&#187;</text></g><!--link UC3 to UC1--><g id="link_UC3_UC1"><path d="M256.62,248.46 C271.37,255.07 286.79,263.09 300,272.34 C389.46,334.97 450.4375,447.7242 475.9775,501.2842 " fill="none" id="UC3-to-UC1" style="stroke:#181818;stroke-width:1.0;stroke-dasharray:7.0,7.0;"/><polygon fill="#181818" points="478.56,506.7,478.2968,496.8547,476.4079,502.1869,471.0757,500.298,478.56,506.7" style="stroke:#181818;stroke-width:1.0;"/><text fill="#000000" font-family="DejaVu Sans" font-size="13" lengthAdjust="spacing" textLength="55" x="331" y="296.8351">&#171;include&#187;</text></g><!--link UC4 to UC1--><g id="link_UC4_UC1"><path d="M241.79,333.94 C260.37,341.58 281.95,351.65 300,363.34 C366.12,406.16 427.9886,467.159 462.4186,503.419 " fill="none" id="UC4-to-UC1" style="stroke:#181818;stroke-width:1.0;stroke-dasharray:7.0,7.0;"/><polygon fill="#181818" points="466.55,507.77,463.2535,498.4892,463.1071,504.1442,457.4522,503.9978,466.55,507.77" style="stroke:#181818;stroke-width:1.0;"/><text fill="#000000" font-family="DejaVu Sans" font-size="13" lengthAdjust="spacing" textLength="55" x="331" y="384.8351">&#171;include&#187;</text></g><!--link UC5 to UC1--><g id="link_UC5_UC1"><path d="M248.2,430.4 C302.17,453.5 382.7141,487.989 436.5641,511.039 " fill="none" id="UC5-to-UC1" style="stroke:#181818;stroke-width:1.0;stroke-dasharray:7.0,7.0;"/><polygon fill="#181818" points="442.08,513.4,435.3801,506.1811,437.4834,511.4325,432.2321,513.5357,442.08,513.4" style="stroke:#181818;stroke-width:1.0;"/><text fill="#000000" font-family="DejaVu Sans" font-size="13" lengthAdjust="spacing" textLength="55" x="331" y="464.8351">&#171;include&#187;</text></g><!--link UC6 to UC1--><g id="link_UC6_UC1"><path d="M287.8,510.68 C330.25,515.62 374.4003,520.7659 414.2403,525.4059 " fill="none" id="UC6-to-UC1" style="stroke:#181818;stroke-width:1.0;stroke-dasharray:7.0,7.0;"/><polygon fill="#181818" points="420.2,526.1,411.7232,521.0857,415.2336,525.5216,410.7977,529.032,420.2,526.1" style="stroke:#181818;stroke-width:1.0;"/><text fill="#000000" font-family="DejaVu Sans" font-size="13" lengthAdjust="spacing" textLength="55" x="331" y="512.8351">&#171;include&#187;</text></g><!--link UC7 to UC1--><g id="link_UC7_UC1"><path d="M275.72,576.36 C322.19,567.29 374.951,556.9886 419.301,548.3386 " fill="none" id="UC7-to-UC1" style="stroke:#181818;stroke-width:1.0;stroke-dasharray:7.0,7.0;"/><polygon fill="#181818" points="425.19,547.19,415.5907,544.9869,420.2825,548.1472,417.1222,552.8389,425.19,547.19" style="stroke:#181818;stroke-width:1.0;"/><text fill="#000000" font-family="DejaVu Sans" font-size="13" lengthAdjust="spacing" textLength="55" x="331" y="552.8351">&#171;include&#187;</text></g><!--link UC8 to UC1--><g id="link_UC8_UC1"><path d="M244.98,661.98 C262.31,654.16 282.15,645.01 300,636.34 C352.41,610.87 406.1241,581.7621 444.4941,560.4621 " fill="none" id="UC8-to-UC1" style="stroke:#181818;stroke-width:1.0;stroke-dasharray:7.0,7.0;"/><polygon fill="#181818" points="449.74,557.55,439.9297,558.4209,445.3684,559.9768,443.8125,565.4154,449.74,557.55" style="stroke:#181818;stroke-width:1.0;"/><text fill="#000000" font-family="DejaVu Sans" font-size="13" lengthAdjust="spacing" textLength="55" x="331" y="589.8351">&#171;include&#187;</text></g><!--link UC9 to UC1--><g id="link_UC9_UC1"><path d="M256.51,750.94 C271.18,744.21 286.59,736.23 300,727.34 C371.71,679.8 434.5147,606.6634 466.8147,565.8834 " fill="none" id="UC9-to-UC1" style="stroke:#181818;stroke-width:1.0;stroke-dasharray:7.0,7.0;"/><polygon fill="#181818" points="470.54,561.18,461.8164,565.7515,467.4355,565.0995,468.0876,570.7186,470.54,561.18" style="stroke:#181818;stroke-width:1.0;"/><text fill="#000000" font-family="DejaVu Sans" font-size="13" lengthAdjust="spacing" textLength="55" x="331" y="652.8351">&#171;include&#187;</text></g><!--link UC10 to UC1--><g id="link_UC10_UC1"><path d="M253.76,843.95 C269.37,836.95 285.94,828.33 300,818.34 C395.19,750.73 454.5041,625.1316 477.9941,567.8316 " fill="none" id="UC10-to-UC1" style="stroke:#181818;stroke-width:1.0;stroke-dasharray:7.0,7.0;"/><polygon fill="#181818" points="480.27,562.28,473.1551,569.0902,478.3734,566.9063,480.5573,572.1247,480.27,562.28" style="stroke:#181818;stroke-width:1.0;"/><text fill="#000000" font-family="DejaVu Sans" font-size="13" lengthAdjust="spacing" textLength="55" x="331" y="729.8351">&#171;include&#187;</text></g><!--link UC11 to UC1--><g id="link_UC11_UC1"><path d="M258.86,932.81 C272.96,926.25 287.51,918.37 300,909.34 C346.14,876 357.22,863.85 387,815.34 C439.26,730.23 470.1944,620.5457 483.1144,568.1157 " fill="none" id="UC11-to-UC1" style="stroke:#181818;stroke-width:1.0;stroke-dasharray:7.0,7.0;"/><polygon fill="#181818" points="484.55,562.29,478.5128,570.0715,483.3537,567.1448,486.2804,571.9857,484.55,562.29" style="stroke:#181818;stroke-width:1.0;"/><text fill="#000000" font-family="DejaVu Sans" font-size="13" lengthAdjust="spacing" textLength="55" x="331" y="811.8351">&#171;include&#187;</text></g><!--link UC12 to UC1--><g id="link_UC12_UC1"><path d="M252.9,1026.2 C268.74,1019.14 285.65,1010.41 300,1000.34 C345.27,968.56 359.44,959.3 387,911.34 C455,793.02 479.624,634.0483 487.374,568.6383 " fill="none" id="UC12-to-UC1" style="stroke:#181818;stroke-width:1.0;stroke-dasharray:7.0,7.0;"/><polygon fill="#181818" points="488.08,562.68,483.0488,571.1468,487.4917,567.6453,490.9933,572.0881,488.08,562.68" style="stroke:#181818;stroke-width:1.0;"/><text fill="#000000" font-family="DejaVu Sans" font-size="13" lengthAdjust="spacing" textLength="55" x="331" y="907.8351">&#171;include&#187;</text></g><!--SRC=[TLAxZjD05Etz5PSWRPTLd7UiLPgiKY64j1j4aMOoddY6sEF87eEejw10IApGbaWOXBRP5Q6W81QYS9J_c3_XEdYbiOXT-VYSutlkuz4w8bv0W78InKp1x7BQ75hnIiWrYKW02q9NNXGcqfs4VXZ1u-dXCHGn9sxuMaWFbiIFcS6uR4aINqr3gPwIW47ZdBqapnEu839kM9RFbWfK297mk09NH8mg4KhB8bHXfSOiPb43I0p5YsKbCQCanh_C9hO3B_AKWk8w-q7dqYMIWyhl9V-ddzYckkt0xiFk2WEkyjzpIVNsAyeNUHgMwhQfxbJLYhCGtFod0Agp6rXpeRT_ajBOCOrT1vxex3qjAlodx9hAdWENKV86NkdjDudfTVOTVA6pjmdGVGgB8c3fwvc-lWFFUFv55grIFfShdVt26IHwUw_W1Bz-nfJS64FVT0zmQ0mNYeMk4jXTw-pZN7eYJz4gf2iemQd7fNDWEeUOTxzvY8lExMq2QhyfjKDJEq9jVXV0gkW-W1DCoVCqm75WeIE36LNssdBW75UAwS8ybMMy8owxLR7PPMiwkoxsLEots9pEte6AzXkTVPBUWxDo6ZRUnaK8CHRZH_TcjoshE3zeDiU7kp90smGT4tHDq3D1tmG34mnDCAeKRLLG9SCXtwGDfwS710wSdGb9_SHbup4odLgcMylqQfb-BJEePOQrpAYMiLlrb5rFrOtXBm00]--></g></svg>